<mxfile host="app.diagrams.net" agent="Mozilla/5.0 (Windows NT 10.0; Win64; x64) AppleWebKit/537.36 (KHTML, like Gecko) Chrome/128.0.0.0 Safari/537.36 Edg/128.0.0.0" version="24.7.14">
  <diagram name="Page-1" id="BpcakA4WUE9FyC1enh28">
    <mxGraphModel dx="1038" dy="700" grid="1" gridSize="10" guides="1" tooltips="1" connect="1" arrows="1" fold="1" page="1" pageScale="1" pageWidth="850" pageHeight="1100" math="0" shadow="0">
      <root>
        <mxCell id="0" />
        <mxCell id="1" parent="0" />
        <mxCell id="d0PH4c4Y_FGDyQ-Diqay-18" value="" style="rounded=1;whiteSpace=wrap;html=1;fillColor=none;dashed=1;" vertex="1" parent="1">
          <mxGeometry x="500" y="270" width="180" height="240" as="geometry" />
        </mxCell>
        <mxCell id="d0PH4c4Y_FGDyQ-Diqay-4" style="rounded=0;orthogonalLoop=1;jettySize=auto;html=1;entryX=0;entryY=0.5;entryDx=0;entryDy=0;" edge="1" parent="1" source="d0PH4c4Y_FGDyQ-Diqay-1" target="d0PH4c4Y_FGDyQ-Diqay-2">
          <mxGeometry relative="1" as="geometry" />
        </mxCell>
        <mxCell id="d0PH4c4Y_FGDyQ-Diqay-1" value="Message" style="text;html=1;align=center;verticalAlign=middle;whiteSpace=wrap;rounded=0;" vertex="1" parent="1">
          <mxGeometry x="155" y="345" width="60" height="30" as="geometry" />
        </mxCell>
        <mxCell id="d0PH4c4Y_FGDyQ-Diqay-6" value="" style="edgeStyle=orthogonalEdgeStyle;rounded=0;orthogonalLoop=1;jettySize=auto;html=1;" edge="1" parent="1" source="d0PH4c4Y_FGDyQ-Diqay-2" target="d0PH4c4Y_FGDyQ-Diqay-3">
          <mxGeometry relative="1" as="geometry" />
        </mxCell>
        <mxCell id="d0PH4c4Y_FGDyQ-Diqay-2" value="Agent ID&lt;div&gt;type=&quot;code_reviewer&quot;&lt;/div&gt;&lt;div&gt;key=&quot;review/343&quot;&lt;/div&gt;" style="rounded=1;whiteSpace=wrap;html=1;fillColor=#f8cecc;strokeColor=#b85450;" vertex="1" parent="1">
          <mxGeometry x="275" y="330" width="150" height="60" as="geometry" />
        </mxCell>
        <mxCell id="d0PH4c4Y_FGDyQ-Diqay-3" value="CodeReviewerAgent" style="rounded=1;whiteSpace=wrap;html=1;fillColor=#dae8fc;strokeColor=#6c8ebf;" vertex="1" parent="1">
          <mxGeometry x="520" y="330" width="140" height="60" as="geometry" />
        </mxCell>
        <mxCell id="d0PH4c4Y_FGDyQ-Diqay-7" value="Auto-created by runtime if not exist" style="text;html=1;align=center;verticalAlign=middle;whiteSpace=wrap;rounded=0;" vertex="1" parent="1">
          <mxGeometry x="530" y="287" width="120" height="30" as="geometry" />
        </mxCell>
        <mxCell id="d0PH4c4Y_FGDyQ-Diqay-8" value="Delivered to" style="text;html=1;align=center;verticalAlign=middle;whiteSpace=wrap;rounded=0;" vertex="1" parent="1">
          <mxGeometry x="430" y="330" width="70" height="30" as="geometry" />
        </mxCell>
        <mxCell id="d0PH4c4Y_FGDyQ-Diqay-9" value="Sent to" style="text;html=1;align=center;verticalAlign=middle;whiteSpace=wrap;rounded=0;" vertex="1" parent="1">
          <mxGeometry x="210" y="330" width="60" height="30" as="geometry" />
        </mxCell>
        <mxCell id="d0PH4c4Y_FGDyQ-Diqay-10" style="rounded=0;orthogonalLoop=1;jettySize=auto;html=1;entryX=0;entryY=0.5;entryDx=0;entryDy=0;" edge="1" parent="1" source="d0PH4c4Y_FGDyQ-Diqay-11" target="d0PH4c4Y_FGDyQ-Diqay-13">
          <mxGeometry relative="1" as="geometry" />
        </mxCell>
        <mxCell id="d0PH4c4Y_FGDyQ-Diqay-11" value="Message" style="text;html=1;align=center;verticalAlign=middle;whiteSpace=wrap;rounded=0;" vertex="1" parent="1">
          <mxGeometry x="155" y="445" width="60" height="30" as="geometry" />
        </mxCell>
        <mxCell id="d0PH4c4Y_FGDyQ-Diqay-12" value="" style="edgeStyle=orthogonalEdgeStyle;rounded=0;orthogonalLoop=1;jettySize=auto;html=1;" edge="1" parent="1" source="d0PH4c4Y_FGDyQ-Diqay-13" target="d0PH4c4Y_FGDyQ-Diqay-14">
          <mxGeometry relative="1" as="geometry" />
        </mxCell>
        <mxCell id="d0PH4c4Y_FGDyQ-Diqay-13" value="Agent ID&lt;div&gt;type=&quot;code_reviewer&quot;&lt;/div&gt;&lt;div&gt;key=&quot;review/423&quot;&lt;/div&gt;" style="rounded=1;whiteSpace=wrap;html=1;fillColor=#f8cecc;strokeColor=#b85450;" vertex="1" parent="1">
          <mxGeometry x="275" y="430" width="150" height="60" as="geometry" />
        </mxCell>
        <mxCell id="d0PH4c4Y_FGDyQ-Diqay-14" value="CodeReviewerAgent" style="rounded=1;whiteSpace=wrap;html=1;fillColor=#dae8fc;strokeColor=#6c8ebf;" vertex="1" parent="1">
          <mxGeometry x="520" y="430" width="140" height="60" as="geometry" />
        </mxCell>
        <mxCell id="d0PH4c4Y_FGDyQ-Diqay-16" value="Delivered to" style="text;html=1;align=center;verticalAlign=middle;whiteSpace=wrap;rounded=0;" vertex="1" parent="1">
          <mxGeometry x="430" y="430" width="70" height="30" as="geometry" />
        </mxCell>
        <mxCell id="d0PH4c4Y_FGDyQ-Diqay-17" value="Sent to" style="text;html=1;align=center;verticalAlign=middle;whiteSpace=wrap;rounded=0;" vertex="1" parent="1">
          <mxGeometry x="210" y="430" width="60" height="30" as="geometry" />
        </mxCell>
      </root>
    </mxGraphModel>
  </diagram>
</mxfile>
